<svg id="Gruppe_1" data-name="Gruppe 1" xmlns="http://www.w3.org/2000/svg" xmlns:xlink="http://www.w3.org/1999/xlink" width="330.201" height="93.545" viewBox="0 0 330.201 93.545">
  <defs>
    <clipPath id="clip-path">
      <rect id="Rechteck_3" data-name="Rechteck 3" width="330.201" height="93.545" fill="none"/>
    </clipPath>
  </defs>
  <g id="Gruppe_1-2" data-name="Gruppe 1" clip-path="url(#clip-path)">
    <path id="Pfad_1" data-name="Pfad 1" d="M321.927,91.653h-1.112a.449.449,0,0,1-.436-.459V83.555h-7.458v7.638a.45.45,0,0,1-.435.459h-1.114a.45.45,0,0,1-.435-.459V75.02a.45.45,0,0,1,.435-.46h1.114a.45.45,0,0,1,.435.46v6.672h7.458V75.02a.45.45,0,0,1,.436-.46h1.112a.45.45,0,0,1,.436.46V91.193a.449.449,0,0,1-.436.459" transform="translate(-148.839 -33.551)" fill="#2f2f31"/>
    <path id="Pfad_2" data-name="Pfad 2" d="M340.528,76.692h-1.111a.45.45,0,0,1-.437-.459V74.392a.451.451,0,0,1,.437-.46h1.111a.45.45,0,0,1,.436.46v1.841a.449.449,0,0,1-.436.459m-.043,14.678h-1.047a.449.449,0,0,1-.436-.459V79.178a.45.45,0,0,1,.436-.461h1.047a.451.451,0,0,1,.435.461V90.911a.45.45,0,0,1-.435.459" transform="translate(-162.262 -33.269)" fill="#2f2f31"/>
    <path id="Pfad_3" data-name="Pfad 3" d="M357.568,84.173l-.785.162a3.333,3.333,0,0,1,.742,2.369v.184c0,2.531-1.484,3.933-4.842,3.933a6,6,0,0,1-2.529-.46.835.835,0,0,0-.545.782c0,.392.174.6.676.737l3.249.873c2.138.575,4.187,1.22,4.187,3.382v.184c0,2.209-1.4,3.566-4.973,3.566-3.444,0-5.015-1.4-5.015-3.658v-.206a3.8,3.8,0,0,1,1.374-2.922l-.153-.069a1.911,1.911,0,0,1-1-1.795v-.022a1.92,1.92,0,0,1,.894-1.657,3.48,3.48,0,0,1-1-2.668V86.7c0-2.048,1.091-4.073,4.841-4.073h4.776a.518.518,0,0,1,.5.507v.6c0,.3-.153.391-.393.437M355.8,96.135c0-.9-.7-1.264-2.659-1.794l-2.463-.668a2.8,2.8,0,0,0-1.07,2.347v.206c0,1.289.719,2.094,3.139,2.094,2.486,0,3.053-.735,3.053-2Zm-.174-9.432c0-1.381-.589-2.461-2.943-2.461-2.442,0-2.943,1.173-2.943,2.461v.184c0,1.011.436,2.346,2.943,2.346,2.354,0,2.943-.965,2.943-2.346Z" transform="translate(-166.452 -37.183)" fill="#2f2f31"/>
    <path id="Pfad_4" data-name="Pfad 4" d="M380.294,91.483h-1.046a.449.449,0,0,1-.436-.459v-7.57c0-2.3-.917-3.012-2.334-3.012a8.094,8.094,0,0,0-3.009.644v9.939a.466.466,0,0,1-.437.459h-1.067a.447.447,0,0,1-.414-.459V74.644a.433.433,0,0,1,.414-.461h1.089a.433.433,0,0,1,.415.461v4.739a8.692,8.692,0,0,1,3.336-.713c2.31,0,3.924,1.4,3.924,4.785v7.57a.449.449,0,0,1-.436.459" transform="translate(-177.853 -33.382)" fill="#2f2f31"/>
    <path id="Pfad_5" data-name="Pfad 5" d="M409.738,84.71c-.7,0-1.613-.068-2.18-.114v6.465a.428.428,0,0,1-.392.459h-1.178a.431.431,0,0,1-.393-.459V75.026a.552.552,0,0,1,.523-.575,33.36,33.36,0,0,1,3.62-.184c3.532,0,6.106,1.289,6.106,4.992v.3c0,3.842-2.574,5.152-6.106,5.152m4.122-5.452c0-2.324-1.309-3.22-4.122-3.22-.676,0-1.656.046-2.18.091V82.87c.5.024,1.615.092,2.18.092,2.989,0,4.122-1.013,4.122-3.4Z" transform="translate(-194.149 -33.419)" fill="#2f2f31"/>
    <path id="Pfad_6" data-name="Pfad 6" d="M438.141,89.472h-7.305v.322c0,2.737,1.025,3.749,3.031,3.749a28.246,28.246,0,0,0,3.882-.254h.108a.315.315,0,0,1,.348.322v.783a.454.454,0,0,1-.435.529,18.755,18.755,0,0,1-3.9.392c-2.509,0-4.95-1.242-4.95-5.522V87.722c0-3.288,1.723-5.382,4.84-5.382,3.184,0,4.8,2.116,4.8,5.382v1.242c0,.3-.152.507-.413.507m-1.526-1.75c0-2.6-.939-3.61-2.857-3.61-1.874,0-2.921,1.126-2.921,3.61v.207h5.779Z" transform="translate(-205.313 -37.052)" fill="#2f2f31"/>
    <path id="Pfad_7" data-name="Pfad 7" d="M457.009,84.087a5.374,5.374,0,0,0-3.011.966v9.639a.464.464,0,0,1-.435.459h-1.068a.447.447,0,0,1-.414-.459V82.961a.433.433,0,0,1,.414-.461h1.025a.433.433,0,0,1,.414.461v.483a5.025,5.025,0,0,1,3.075-1.1c.305,0,.457.138.457.414V83.7c0,.254-.152.392-.457.392" transform="translate(-216.401 -37.052)" fill="#2f2f31"/>
    <path id="Pfad_8" data-name="Pfad 8" d="M472.335,75.417h-1.048c-1.024,0-1.331.322-1.331,1.587V78.66h2.29a.408.408,0,0,1,.415.415v.9a.389.389,0,0,1-.415.392h-2.29v10.49a.462.462,0,0,1-.413.459h-1.068a.465.465,0,0,1-.437-.459V80.364l-2.116-.254a.421.421,0,0,1-.413-.414v-.622a.407.407,0,0,1,.413-.415h2.116V77c0-2.462,1.134-3.2,3.054-3.2a4.7,4.7,0,0,1,1.22.138c.241.068.414.16.414.367v.76c0,.254-.153.345-.391.345" transform="translate(-222.829 -33.213)" fill="#2f2f31"/>
    <path id="Pfad_9" data-name="Pfad 9" d="M486.869,95.315c-3.206,0-4.84-2.231-4.84-5.613V87.953c0-3.381,1.634-5.613,4.84-5.613s4.861,2.232,4.861,5.613V89.7c0,3.382-1.656,5.613-4.861,5.613m2.944-7.362c0-2.347-.9-3.841-2.944-3.841-2.028,0-2.924,1.47-2.924,3.841V89.7c0,2.345.874,3.841,2.924,3.841,2.027,0,2.944-1.472,2.944-3.841Z" transform="translate(-230.736 -37.052)" fill="#2f2f31"/>
    <path id="Pfad_10" data-name="Pfad 10" d="M510.386,84.087a5.371,5.371,0,0,0-3.01.966v9.639a.465.465,0,0,1-.436.459h-1.068a.447.447,0,0,1-.414-.459V82.961a.433.433,0,0,1,.414-.461H506.9a.433.433,0,0,1,.414.461v.483a5.027,5.027,0,0,1,3.075-1.1c.3,0,.457.138.457.414V83.7c0,.254-.152.392-.457.392" transform="translate(-241.951 -37.052)" fill="#2f2f31"/>
    <path id="Pfad_11" data-name="Pfad 11" d="M533.779,95.134h-1.047a.45.45,0,0,1-.435-.459V86.53c0-1.932-.85-2.461-1.984-2.461a7.231,7.231,0,0,0-2.551.621,7.238,7.238,0,0,1,.2,1.794v8.191a.428.428,0,0,1-.392.459h-1.155a.415.415,0,0,1-.371-.459V86.484c0-2-.545-2.415-1.679-2.415a6.362,6.362,0,0,0-2.66.9v9.709a.428.428,0,0,1-.392.459H520.15a.414.414,0,0,1-.37-.459V82.942a.433.433,0,0,1,.414-.461h1.091a.433.433,0,0,1,.413.461v.437a5.919,5.919,0,0,1,3.185-1.082,2.59,2.59,0,0,1,2.18.943,8.393,8.393,0,0,1,3.62-.943c1.961,0,3.531,1.035,3.531,4.233v8.145a.449.449,0,0,1-.436.459" transform="translate(-248.807 -37.033)" fill="#2f2f31"/>
    <path id="Pfad_12" data-name="Pfad 12" d="M560.312,95.154h-1a.45.45,0,0,1-.437-.459v-.507a6.4,6.4,0,0,1-3.357,1.128c-1.854,0-3.555-.851-3.555-3.727v-.276c0-2.485,1.373-3.728,5.255-3.728h1.614v-.92c0-1.933-.632-2.6-2.333-2.6a30.113,30.113,0,0,0-3.336.185h-.108c-.2,0-.394-.069-.394-.369v-.805c0-.252.153-.39.458-.437a17.919,17.919,0,0,1,3.38-.3c3.032,0,4.253,1.61,4.253,4.325v8.03a.45.45,0,0,1-.437.459m-1.483-6.119h-1.614c-2.637,0-3.336.621-3.336,2.254v.277c0,1.656.742,2.092,2.007,2.092a5.775,5.775,0,0,0,2.943-.92Z" transform="translate(-264.211 -37.052)" fill="#2f2f31"/>
    <path id="Pfad_13" data-name="Pfad 13" d="M583.071,95.154h-1.047a.449.449,0,0,1-.436-.459v-7.57c0-2.323-.742-3.036-2.4-3.036a6.631,6.631,0,0,0-2.945.9v9.709a.465.465,0,0,1-.436.459h-1.068a.447.447,0,0,1-.414-.459V82.961a.433.433,0,0,1,.414-.461h1.091a.433.433,0,0,1,.413.461V83.4a6.322,6.322,0,0,1,3.467-1.059c2.617,0,3.794,1.725,3.794,4.785v7.57a.45.45,0,0,1-.435.459" transform="translate(-274.917 -37.052)" fill="#2f2f31"/>
    <path id="Pfad_14" data-name="Pfad 14" d="M604.066,95.062a15,15,0,0,1-2.726.254c-2.966,0-4.644-2.209-4.644-5.591V87.93c0-3.382,1.657-5.59,4.644-5.59a15.272,15.272,0,0,1,2.726.252c.349.07.436.185.436.507v.828a.339.339,0,0,1-.37.345h-.087a20.3,20.3,0,0,0-2.7-.16c-1.745,0-2.726,1.219-2.726,3.818v1.794c0,2.577.96,3.819,2.726,3.819a20.111,20.111,0,0,0,2.7-.161h.087a.339.339,0,0,1,.37.345v.829c0,.3-.087.436-.436.505" transform="translate(-285.625 -37.052)" fill="#2f2f31"/>
    <path id="Pfad_15" data-name="Pfad 15" d="M624.127,89.472h-7.305v.322c0,2.737,1.024,3.749,3.031,3.749a28.249,28.249,0,0,0,3.882-.254h.108a.315.315,0,0,1,.349.322v.783a.454.454,0,0,1-.436.529,18.74,18.74,0,0,1-3.9.392c-2.507,0-4.949-1.242-4.949-5.522V87.722c0-3.288,1.723-5.382,4.84-5.382,3.184,0,4.8,2.116,4.8,5.382v1.242c0,.3-.153.507-.414.507m-1.526-1.75c0-2.6-.937-3.61-2.857-3.61-1.875,0-2.922,1.126-2.922,3.61v.207H622.6Z" transform="translate(-294.34 -37.052)" fill="#2f2f31"/>
    <path id="Pfad_16" data-name="Pfad 16" d="M163.964,72h-8.62a1.083,1.083,0,0,1-1.051-1.108V31.852a1.038,1.038,0,0,1,1.051-1.053h8.62a1.038,1.038,0,0,1,1.051,1.053V70.893A1.083,1.083,0,0,1,163.964,72" transform="translate(-73.857 -13.859)" fill="#d80012"/>
    <path id="Pfad_17" data-name="Pfad 17" d="M196.4,72.049a37.014,37.014,0,0,1-10.619-1.443c-.524-.166-1.1-.5-1.1-1.109V62.675a1.009,1.009,0,0,1,1-1.109h.106c2.207.223,7.885.832,10.671.832,2.574,0,3.311-1.054,3.311-2.828,0-1.109-.525-1.719-2.47-2.94l-7.57-4.714c-4.941-3.049-6.256-6.82-6.256-11.09,0-6.042,3.156-11.035,13.772-11.035a53.423,53.423,0,0,1,11.932,1.385c.472.167.948.446.948,1.055v6.933a.986.986,0,0,1-.948,1.053h-.106c-2.155-.167-8.146-.723-11.932-.723-1.945,0-2.626.723-2.626,1.886,0,1,.472,1.554,2.732,2.831l7.1,3.991c5.1,2.885,6.936,6.542,6.936,11.146,0,6.211-4.045,12.7-14.873,12.7" transform="translate(-87.823 -13.406)" fill="#d80012"/>
    <path id="Pfad_18" data-name="Pfad 18" d="M267.69,71.1a23.662,23.662,0,0,1-7.359,1c-9.673,0-16.19-5.548-16.19-18.248v-5.71c0-12.7,6.517-18.244,16.19-18.244a23.582,23.582,0,0,1,7.359,1c.839.277,1.155.443,1.155,1.22v7.1c0,.721-.316,1.053-.944,1.053h-.16a64.373,64.373,0,0,0-7.358-.5c-2.839,0-5.413,1.332-5.413,8.375v5.71c0,6.988,2.522,8.374,5.413,8.374a64.413,64.413,0,0,0,7.358-.5h.16c.628,0,.944.333.944,1.057v7.1c0,.723-.316.943-1.155,1.222" transform="translate(-116.865 -13.452)" fill="#d80012"/>
    <path id="Pfad_19" data-name="Pfad 19" d="M10.592,61.313c5.851,0,10.593-5,10.593-11.173S16.443,38.962,10.592,38.962,0,43.965,0,50.139,4.742,61.313,10.592,61.313" transform="translate(0 -17.533)" fill="#b1b3b4"/>
    <path id="Pfad_20" data-name="Pfad 20" d="M69.487,81.077a5.692,5.692,0,0,0-3.9,1.582L37.94,59.93a8.139,8.139,0,0,0,.89-3.72,7.75,7.75,0,0,0-5.624-7.585l4.092-36.2a6.085,6.085,0,0,0,5.519-6.193A5.918,5.918,0,1,0,31,6.235a6.184,6.184,0,0,0,4.151,5.922l-4.1,36.248A7.645,7.645,0,0,0,24,56.21a8.212,8.212,0,0,0,.295,2.166l-10.654,5.7a5.78,5.78,0,0,0-4.672-2.457,6.243,6.243,0,0,0,0,12.469,6.078,6.078,0,0,0,5.909-6.234,6.467,6.467,0,0,0-.263-1.741l10.577-5.655a7.32,7.32,0,0,0,6.225,3.578,7.2,7.2,0,0,0,5.231-2.278l27.618,22.7a6.419,6.419,0,0,0-.683,2.85,5.918,5.918,0,1,0,5.909-6.233" transform="translate(-1.463)" fill="#d80012"/>
    <path id="Pfad_21" data-name="Pfad 21" d="M87.649,61.487a5.268,5.268,0,1,0-4.986-5.26,5.129,5.129,0,0,0,4.986,5.26" transform="translate(-39.569 -22.934)" fill="#b1b3b4"/>
    <path id="Pfad_22" data-name="Pfad 22" d="M111.353,112.119a4.994,4.994,0,1,0,4.987-5.259,5.13,5.13,0,0,0-4.987,5.259" transform="translate(-53.302 -48.086)" fill="#b1b3b4"/>
    <path id="Pfad_23" data-name="Pfad 23" d="M63.412,132.926a5.268,5.268,0,1,0,4.985,5.261,5.127,5.127,0,0,0-4.985-5.261" transform="translate(-27.967 -59.816)" fill="#b1b3b4"/>
    <path id="Pfad_24" data-name="Pfad 24" d="M104.742,26.531a7.407,7.407,0,0,0,7.2-7.6,7.211,7.211,0,1,0-14.4,0,7.405,7.405,0,0,0,7.2,7.6" transform="translate(-46.691 -5.101)" fill="#b1b3b4"/>
    <path id="Pfad_25" data-name="Pfad 25" d="M199.618,123.889v8.3h-.928v-8.3h-2.515v-.876h5.96v.876Z" transform="translate(-93.904 -55.355)" fill="#2f2f31"/>
    <path id="Pfad_26" data-name="Pfad 26" d="M214.852,132.187V128.27c0-1.109-.561-1.674-1.466-1.674s-1.5.58-1.5,1.674v3.917h-.879v-9.174h.879v3.529a2.185,2.185,0,0,1,3.846,1.573v4.072Z" transform="translate(-101.004 -55.355)" fill="#2f2f31"/>
    <path id="Pfad_27" data-name="Pfad 27" d="M224.7,131.517c0,1.392.623,2.192,1.77,2.192a1.926,1.926,0,0,0,1.575-.722l.6.553a2.688,2.688,0,0,1-2.2.981c-1.586,0-2.624-1.006-2.624-3.248,0-2.048.94-3.246,2.467-3.246,1.55,0,2.467,1.184,2.467,3.066v.425Zm2.992-1.752a1.512,1.512,0,0,0-2.81,0,2.812,2.812,0,0,0-.182,1.057h3.175a2.8,2.8,0,0,0-.184-1.057" transform="translate(-107.14 -57.611)" fill="#2f2f31"/>
    <path id="Pfad_28" data-name="Pfad 28" d="M248.081,132.187V128h-4.128v4.187h-.927v-9.174h.927v4.111h4.128v-4.111h.927v9.174Z" transform="translate(-116.331 -55.355)" fill="#2f2f31"/>
    <path id="Pfad_29" data-name="Pfad 29" d="M262.674,128.412h-2.308v3.775h-.928v-9.174h3.236a2.7,2.7,0,0,1,0,5.4m-.086-4.523h-2.222v3.647h2.222a1.823,1.823,0,1,0,0-3.647" transform="translate(-124.187 -55.355)" fill="#2f2f31"/>
    <path id="Pfad_30" data-name="Pfad 30" d="M277.347,132.2a3.019,3.019,0,0,1-2.223-.954c-.818-.864-.818-1.765-.818-3.71s0-2.847.818-3.711a3.019,3.019,0,0,1,2.223-.954,2.985,2.985,0,0,1,3.015,2.734h-.951a2.089,2.089,0,0,0-2.064-1.856,2.04,2.04,0,0,0-1.5.644c-.549.593-.61,1.224-.61,3.144s.061,2.55.61,3.143a2.04,2.04,0,0,0,1.5.644,2.114,2.114,0,0,0,2.089-1.855h.926a2.985,2.985,0,0,1-3.015,2.733" transform="translate(-131.304 -55.291)" fill="#2f2f31"/>
    <path id="Pfad_31" data-name="Pfad 31" d="M295.711,132.187v-9.174h5.4v.876h-4.47v3.235h3.811V128h-3.811v3.311h4.47v.877Z" transform="translate(-141.55 -55.355)" fill="#2f2f31"/>
    <path id="Pfad_32" data-name="Pfad 32" d="M310.834,134.507h-.782l-2.2-6.339h.954l1.636,5.09,1.649-5.09h.952Z" transform="translate(-147.363 -57.674)" fill="#2f2f31"/>
    <path id="Pfad_33" data-name="Pfad 33" d="M320.735,131.517c0,1.392.623,2.192,1.77,2.192a1.924,1.924,0,0,0,1.575-.722l.6.553a2.688,2.688,0,0,1-2.2.981c-1.587,0-2.624-1.006-2.624-3.248,0-2.048.94-3.246,2.466-3.246,1.551,0,2.467,1.184,2.467,3.066v.425Zm2.991-1.752a1.512,1.512,0,0,0-2.809,0,2.8,2.8,0,0,0-.182,1.057h3.175a2.8,2.8,0,0,0-.184-1.057" transform="translate(-153.108 -57.611)" fill="#2f2f31"/>
    <path id="Pfad_34" data-name="Pfad 34" d="M336.979,134.443v-3.905c0-1.121-.573-1.686-1.477-1.686s-1.49.58-1.49,1.686v3.905h-.879V128.1h.879v.695a2.118,2.118,0,0,1,1.686-.772,2.042,2.042,0,0,1,1.538.592,2.414,2.414,0,0,1,.623,1.764v4.06Z" transform="translate(-159.463 -57.611)" fill="#2f2f31"/>
    <path id="Pfad_35" data-name="Pfad 35" d="M347.546,132.914a1.522,1.522,0,0,1-1.539-1.7v-3.89h-.756v-.709h.756v-1.985h.879v1.985h1.283v.709h-1.283v3.864c0,.581.258.928.819.928h.464v.8Z" transform="translate(-165.263 -56.082)" fill="#2f2f31"/>
    <rect id="Rechteck_2" data-name="Rechteck 2" width="1.148" height="1.212" transform="translate(184.815 75.62)" fill="#2f2f31"/>
  </g>
</svg>
